<svg xmlns="http://www.w3.org/2000/svg" viewBox="0 0 41.85 36.1"><g><path d="M28.76.92a7.9 7.9 0 0 1 5.59 2.42.75.75 0 0 0 .54.25h.25a17 17 0 0 0 4.47-1.82 2.32 2.32 0 0 1 .27-.11 9.2 9.2 0 0 1-3.38 4.6 15 15 0 0 0 4.36-1.21l.06.09c-.38.51-.74 1-1.14 1.52a15.17 15.17 0 0 1-2.59 2.54.77.77 0 0 0-.28.72 23.17 23.17 0 0 1-.42 5.26 27.72 27.72 0 0 1-1.71 5.56 25.42 25.42 0 0 1-4.54 7.11 22.2 22.2 0 0 1-5.68 4.51 21.33 21.33 0 0 1-7.3 2.47c-.75.1-1.5.26-2.25.3H12.4a22.49 22.49 0 0 1-7.81-1.82c-1.15-.52-2.24-1.17-3.36-1.76a2.18 2.18 0 0 1-.31-.22c.53.05 1 .07 1.55.07a16.46 16.46 0 0 0 10.46-3.68 8.49 8.49 0 0 1-7.65-6 10.35 10.35 0 0 0 1.55.13 7 7 0 0 0 2-.27c-4-1.32-6.18-4.12-6.4-8.52A8.34 8.34 0 0 0 6 14a8.88 8.88 0 0 1-3.33-5.25 8.62 8.62 0 0 1 .9-6.2 23.28 23.28 0 0 0 17 9c0-.46-.11-.85-.14-1.24a8.62 8.62 0 0 1 2.6-7 7.74 7.74 0 0 1 4.29-2.21 9.08 9.08 0 0 1 1.44-.18m0-.92a9.82 9.82 0 0 0-1.61.14 8.7 8.7 0 0 0-4.79 2.47 9.59 9.59 0 0 0-2.87 7.74v.16A22.3 22.3 0 0 1 4.28 2a.9.9 0 0 0-.71-.34h-.08a.93.93 0 0 0-.73.47 9.65 9.65 0 0 0-1 6.84 9.49 9.49 0 0 0 1.47 3.43l-.43-.2a.9.9 0 0 0-.4-.09.91.91 0 0 0-.92 1 9.64 9.64 0 0 0 3.75 7.69.93.93 0 0 0-.66.34.92.92 0 0 0-.16.9 9.41 9.41 0 0 0 6.21 6.19 15.19 15.19 0 0 1-8.15 2.27c-.48 0-1 0-1.47-.06H.92a.92.92 0 0 0-.86.6.91.91 0 0 0 .32 1.07l.06.05a2.32 2.32 0 0 0 .35.24l1 .53c.79.43 1.6.88 2.44 1.25a23.27 23.27 0 0 0 8.12 1.91h2.73c.47 0 1.1-.13 1.63-.21l.69-.11a22.18 22.18 0 0 0 7.6-2.6 22.94 22.94 0 0 0 5.91-4.7 26.51 26.51 0 0 0 4.71-7.36 28.91 28.91 0 0 0 1.77-5.75 24.35 24.35 0 0 0 .44-5.47 16.14 16.14 0 0 0 2.67-2.65c.28-.35.55-.71.82-1.07l.34-.47a.93.93 0 0 0 0-1.09l-.06-.08a.9.9 0 0 0-.76-.4.92.92 0 0 0-.36.07c-.37.16-.74.31-1.1.44a10 10 0 0 0 1.36-2.73.91.91 0 0 0-.26-1 .9.9 0 0 0-.6-.21 1.15 1.15 0 0 0-.36.07h-.11a1.62 1.62 0 0 0-.26.12A16 16 0 0 1 35 2.65 8.77 8.77 0 0 0 28.76 0z" /></g></svg>