<?xml version="1.0" encoding="utf-8"?>
<!-- Generator: Adobe Illustrator 23.0.1, SVG Export Plug-In . SVG Version: 6.00 Build 0)  -->
<svg version="1.1" id="Layer_1" xmlns="http://www.w3.org/2000/svg" xmlns:xlink="http://www.w3.org/1999/xlink" x="0px" y="0px"
	 viewBox="0 0 108.5 49.7" style="enable-background:new 0 0 108.5 49.7;" xml:space="preserve">
<style type="text/css">
	.st0{clip-path:url(#SVGID_2_);}
</style>
<g>
	<defs>
		<rect id="SVGID_1_" y="0" width="108.5" height="49.7"/>
	</defs>
	<clipPath id="SVGID_2_">
		<use xlink:href="#SVGID_1_"  style="overflow:visible;"/>
	</clipPath>
	<path class="st0" d="M45.8,39.7c-2.3,0-4.3-0.3-5.9-1c-0.2-0.1-0.5-0.2-0.7-0.3v11.3h-0.7V32c0.8,0.9,1.9,1.6,3.2,2.3
		c1.3,0.6,2.8,0.9,4.4,0.9c1.4,0,2.4-0.3,3.1-0.8c0.7-0.5,1-1.2,1-1.9c0-0.7-0.3-1.2-1-1.6c-0.7-0.4-1.5-0.7-2.5-1
		c-1-0.3-2.1-0.5-3.3-0.8C42.1,29,41,28.5,40,28c-0.6-0.3-1.1-0.6-1.5-1.1v-9.4c0.1-0.1,0.3-0.3,0.4-0.4c0.8-0.7,1.7-1.2,2.9-1.6
		c1.1-0.4,2.4-0.6,3.8-0.6c3.8,0,6.9,1.1,9.3,3.3L52,22.1c-1-0.9-2.1-1.6-3.3-2c-1.2-0.4-2.4-0.6-3.7-0.6c-1.1,0-1.9,0.2-2.5,0.7
		c-0.6,0.4-0.9,1-0.9,1.7c0,0.6,0.3,1.1,1,1.5c0.7,0.3,1.5,0.6,2.5,0.9c1,0.2,2.1,0.5,3.3,0.8c1.2,0.3,2.3,0.7,3.3,1.3
		c1,0.5,1.9,1.2,2.5,2.1c0.7,0.9,1,2.1,1,3.6c0,1.1-0.2,2.1-0.6,3c-0.4,0.9-1,1.7-1.8,2.4c-0.8,0.7-1.8,1.2-3,1.6
		C48.8,39.5,47.4,39.7,45.8,39.7 M78.5,39.3V22.5l-6.7,16.7h-2.2l-6.7-16.7v16.7h-5.1V15.4h7.1l5.8,14.4l5.8-14.4h7.2v23.9H78.5z
		 M98.5,39.7c-1.8,0-3.5-0.3-5-0.9c-1.6-0.6-2.9-1.4-4-2.5c-1.1-1.1-2-2.4-2.7-3.9c-0.6-1.5-1-3.2-1-5c0-1.8,0.3-3.5,1-5
		c0.7-1.5,1.6-2.8,2.7-3.9c1.1-1.1,2.5-1.9,4-2.5c1.6-0.6,3.2-0.9,5-0.9c1.3,0,2.5,0.2,3.5,0.5c1,0.3,2,0.8,2.8,1.3
		c0.8,0.5,1.5,1.1,2.1,1.9c0.6,0.7,1.1,1.4,1.5,2.1l-4.4,2.1c-0.5-1-1.3-1.8-2.3-2.5c-1-0.7-2.1-1-3.4-1c-1.1,0-2.1,0.2-3,0.6
		c-0.9,0.4-1.7,0.9-2.4,1.6c-0.7,0.7-1.2,1.5-1.6,2.5c-0.4,1-0.5,2-0.5,3.1c0,1.1,0.2,2.2,0.5,3.1c0.4,1,0.9,1.8,1.6,2.5
		c0.7,0.7,1.5,1.2,2.4,1.6c0.9,0.4,1.9,0.6,3,0.6c1.2,0,2.4-0.3,3.4-1c1-0.7,1.8-1.5,2.3-2.5l4.4,2.1c-0.4,0.7-0.9,1.5-1.5,2.2
		c-0.6,0.7-1.3,1.3-2.1,1.9c-0.8,0.5-1.7,1-2.8,1.3C101,39.5,99.8,39.7,98.5,39.7"/>
	<path class="st0" d="M33,28.6c-1.1,0-2.2-0.2-3.2-0.5c-1-0.4-1.9-0.8-2.5-1.5l1.5-2.4c0.2,0.2,0.5,0.4,0.9,0.6
		c0.4,0.2,0.7,0.4,1.1,0.6c0.4,0.2,0.8,0.3,1.2,0.4c0.4,0.1,0.8,0.1,1.3,0.1c0.7,0,1.3-0.1,1.6-0.4c0.4-0.3,0.5-0.6,0.5-1
		c0-0.4-0.2-0.6-0.6-0.8c-0.4-0.2-0.8-0.3-1.4-0.4c-0.6-0.1-1.2-0.3-1.8-0.4c-0.7-0.1-1.3-0.4-1.8-0.6c-0.6-0.3-1-0.7-1.4-1.2
		c-0.4-0.5-0.6-1.2-0.6-2c0-0.5,0.1-1,0.3-1.5c0.2-0.5,0.6-0.9,1-1.3c0.5-0.4,1-0.7,1.7-0.9c0.7-0.2,1.4-0.3,2.3-0.3
		c1.1,0,2.1,0.2,2.9,0.5l0.2,0.1V0h0.7v16l0,2.2v1c-0.4-0.4-0.9-0.8-1.6-1c-0.7-0.3-1.4-0.5-2.2-0.5c-0.6,0-1.1,0.1-1.5,0.4
		C31.1,18.3,31,18.6,31,19c0,0.3,0.2,0.6,0.6,0.7c0.4,0.2,0.8,0.3,1.4,0.4c0.6,0.1,1.2,0.2,1.8,0.4c0.7,0.1,1.3,0.4,1.8,0.7l0.2,0.1
		l0,6.4c-0.4,0.3-0.9,0.5-1.4,0.6C34.7,28.5,33.9,28.6,33,28.6 M8.6,28.3V27c-0.4,0.5-1,0.9-1.7,1.2c-0.7,0.3-1.5,0.4-2.3,0.4
		c-0.5,0-1-0.1-1.6-0.3c-0.5-0.2-1-0.4-1.4-0.8c-0.4-0.4-0.8-0.8-1.1-1.3C0.1,25.7,0,25.1,0,24.3c0-0.7,0.1-1.4,0.4-1.9
		c0.3-0.5,0.6-1,1.1-1.3c0.4-0.3,0.9-0.6,1.4-0.7c0.5-0.2,1.1-0.2,1.6-0.2c0.9,0,1.6,0.1,2.3,0.4c0.7,0.3,1.3,0.7,1.7,1.2V20
		c0-0.7-0.3-1.2-0.8-1.6c-0.5-0.4-1.2-0.6-2.1-0.6c-1.4,0-2.7,0.5-3.8,1.5l-1.3-2.3c0.8-0.7,1.7-1.2,2.6-1.5c1-0.3,2-0.5,3-0.5
		c0.7,0,1.4,0.1,2.1,0.2c0.7,0.2,1.3,0.4,1.8,0.8c0.5,0.4,1,0.9,1.3,1.5C11.8,18.3,12,19,12,20v8.3H8.6z M5.8,26.3
		c0.6,0,1.1-0.1,1.5-0.3c0.5-0.2,0.9-0.5,1.2-0.9v-1.6c-0.3-0.4-0.7-0.6-1.2-0.8c-0.5-0.2-1-0.3-1.5-0.3c-0.7,0-1.3,0.2-1.7,0.5
		c-0.5,0.3-0.7,0.8-0.7,1.4c0,0.6,0.2,1.1,0.7,1.4C4.6,26.2,5.2,26.3,5.8,26.3 M22.4,28.3v-1.6c-0.4,0.5-1.1,1-1.8,1.4
		c-0.7,0.4-1.7,0.6-2.7,0.6c-1.4,0-2.5-0.4-3.1-1.1c-0.7-0.7-1-1.7-1-3v-9.2h3.4v7.8c0,0.9,0.2,1.5,0.6,1.9c0.4,0.3,1,0.5,1.7,0.5
		c0.7,0,1.2-0.2,1.7-0.5c0.5-0.3,0.9-0.6,1.2-1v-8.7h3.4v12.9H22.4z"/>
</g>
</svg>
